<svg width="422" height="113" viewBox="0 0 422 113" fill="none" xmlns="http://www.w3.org/2000/svg">
<path d="M123.031 17V89H114.312V17H123.031ZM158 89.9375C154.469 89.9375 151.266 89.3438 148.391 88.1562C145.547 86.9375 143.094 85.2344 141.031 83.0469C139 80.8594 137.437 78.2656 136.344 75.2656C135.25 72.2656 134.703 68.9844 134.703 65.4219V63.4531C134.703 59.3281 135.312 55.6562 136.531 52.4375C137.75 49.1875 139.406 46.4375 141.5 44.1875C143.594 41.9375 145.969 40.2344 148.625 39.0781C151.281 37.9219 154.031 37.3438 156.875 37.3438C160.5 37.3438 163.625 37.9688 166.25 39.2188C168.906 40.4688 171.078 42.2188 172.766 44.4688C174.453 46.6875 175.703 49.3125 176.516 52.3438C177.328 55.3438 177.734 58.625 177.734 62.1875V66.0781H139.859V59H169.062V58.3438C168.937 56.0938 168.469 53.9062 167.656 51.7812C166.875 49.6562 165.625 47.9062 163.906 46.5312C162.187 45.1562 159.844 44.4688 156.875 44.4688C154.906 44.4688 153.094 44.8906 151.437 45.7344C149.781 46.5469 148.359 47.7656 147.172 49.3906C145.984 51.0156 145.062 53 144.406 55.3438C143.75 57.6875 143.422 60.3906 143.422 63.4531V65.4219C143.422 67.8281 143.75 70.0938 144.406 72.2188C145.094 74.3125 146.078 76.1562 147.359 77.75C148.672 79.3438 150.25 80.5938 152.094 81.5C153.969 82.4062 156.094 82.8594 158.469 82.8594C161.531 82.8594 164.125 82.2344 166.25 80.9844C168.375 79.7344 170.234 78.0625 171.828 75.9688L177.078 80.1406C175.984 81.7969 174.594 83.375 172.906 84.875C171.219 86.375 169.141 87.5938 166.672 88.5312C164.234 89.4688 161.344 89.9375 158 89.9375ZM202.625 81.1719L216.5 38.2812H225.359L207.125 89H201.312L202.625 81.1719ZM191.047 38.2812L205.344 81.4062L206.328 89H200.516L182.141 38.2812H191.047ZM254.094 89.9375C250.562 89.9375 247.359 89.3438 244.484 88.1562C241.641 86.9375 239.187 85.2344 237.125 83.0469C235.094 80.8594 233.531 78.2656 232.437 75.2656C231.344 72.2656 230.797 68.9844 230.797 65.4219V63.4531C230.797 59.3281 231.406 55.6562 232.625 52.4375C233.844 49.1875 235.5 46.4375 237.594 44.1875C239.687 41.9375 242.062 40.2344 244.719 39.0781C247.375 37.9219 250.125 37.3438 252.969 37.3438C256.594 37.3438 259.719 37.9688 262.344 39.2188C265 40.4688 267.172 42.2188 268.859 44.4688C270.547 46.6875 271.797 49.3125 272.609 52.3438C273.422 55.3438 273.828 58.625 273.828 62.1875V66.0781H235.953V59H265.156V58.3438C265.031 56.0938 264.562 53.9062 263.75 51.7812C262.969 49.6562 261.719 47.9062 260 46.5312C258.281 45.1562 255.937 44.4688 252.969 44.4688C251 44.4688 249.187 44.8906 247.531 45.7344C245.875 46.5469 244.453 47.7656 243.266 49.3906C242.078 51.0156 241.156 53 240.5 55.3438C239.844 57.6875 239.516 60.3906 239.516 63.4531V65.4219C239.516 67.8281 239.844 70.0938 240.5 72.2188C241.187 74.3125 242.172 76.1562 243.453 77.75C244.766 79.3438 246.344 80.5938 248.187 81.5C250.062 82.4062 252.187 82.8594 254.562 82.8594C257.625 82.8594 260.219 82.2344 262.344 80.9844C264.469 79.7344 266.328 78.0625 267.922 75.9688L273.172 80.1406C272.078 81.7969 270.687 83.375 269 84.875C267.312 86.375 265.234 87.5938 262.766 88.5312C260.328 89.4688 257.437 89.9375 254.094 89.9375ZM293.375 17V89H284.656V17H293.375ZM316.719 38.2812V89H308V38.2812H316.719ZM307.344 24.8281C307.344 23.4219 307.766 22.2344 308.609 21.2656C309.484 20.2969 310.766 19.8125 312.453 19.8125C314.109 19.8125 315.375 20.2969 316.25 21.2656C317.156 22.2344 317.609 23.4219 317.609 24.8281C317.609 26.1719 317.156 27.3281 316.25 28.2969C315.375 29.2344 314.109 29.7031 312.453 29.7031C310.766 29.7031 309.484 29.2344 308.609 28.2969C307.766 27.3281 307.344 26.1719 307.344 24.8281ZM368.422 81.875V89H331.531V81.875H368.422ZM367.062 44.4219L333.5 89H328.203V82.625L361.531 38.2812H367.062V44.4219ZM363.219 38.2812V45.4531H328.578V38.2812H363.219ZM398.562 89.9375C395.031 89.9375 391.828 89.3438 388.953 88.1562C386.109 86.9375 383.656 85.2344 381.594 83.0469C379.562 80.8594 378 78.2656 376.906 75.2656C375.812 72.2656 375.266 68.9844 375.266 65.4219V63.4531C375.266 59.3281 375.875 55.6562 377.094 52.4375C378.312 49.1875 379.969 46.4375 382.062 44.1875C384.156 41.9375 386.531 40.2344 389.187 39.0781C391.844 37.9219 394.594 37.3438 397.437 37.3438C401.062 37.3438 404.187 37.9688 406.812 39.2188C409.469 40.4688 411.641 42.2188 413.328 44.4688C415.016 46.6875 416.266 49.3125 417.078 52.3438C417.891 55.3438 418.297 58.625 418.297 62.1875V66.0781H380.422V59H409.625V58.3438C409.5 56.0938 409.031 53.9062 408.219 51.7812C407.437 49.6562 406.187 47.9062 404.469 46.5312C402.75 45.1562 400.406 44.4688 397.437 44.4688C395.469 44.4688 393.656 44.8906 392 45.7344C390.344 46.5469 388.922 47.7656 387.734 49.3906C386.547 51.0156 385.625 53 384.969 55.3438C384.312 57.6875 383.984 60.3906 383.984 63.4531V65.4219C383.984 67.8281 384.312 70.0938 384.969 72.2188C385.656 74.3125 386.641 76.1562 387.922 77.75C389.234 79.3438 390.812 80.5938 392.656 81.5C394.531 82.4062 396.656 82.8594 399.031 82.8594C402.094 82.8594 404.687 82.2344 406.812 80.9844C408.937 79.7344 410.797 78.0625 412.391 75.9688L417.641 80.1406C416.547 81.7969 415.156 83.375 413.469 84.875C411.781 86.375 409.703 87.5938 407.234 88.5312C404.797 89.4688 401.906 89.9375 398.562 89.9375Z" fill="#7B8B96"/>
<path fill-rule="evenodd" clip-rule="evenodd" d="M69.4957 6.92961L65.4064 2.74564L0.0204773 66.652L4.10977 70.836L69.4957 6.92961ZM90.9999 17H74.9999V31H58.9999V47H42.9999V63H26.9999V77H10.9999V89H26.9999H42.9999H58.9999H74.9999H90.9999V17Z" fill="#7B8B96"/>
</svg>
